M48
; DRILL file {KiCad 9.0.7} date 2026-02-02T16:24:37+0700
; FORMAT={-:-/ absolute / metric / decimal}
; #@! TF.CreationDate,2026-02-02T16:24:37+07:00
; #@! TF.GenerationSoftware,Kicad,Pcbnew,9.0.7
; #@! TF.FileFunction,Plated,1,2,PTH
FMAT,2
METRIC
; #@! TA.AperFunction,Plated,PTH,ComponentDrill
T1C0.750
; #@! TA.AperFunction,Plated,PTH,ComponentDrill
T2C1.000
; #@! TA.AperFunction,Plated,PTH,ComponentDrill
T3C1.020
; #@! TA.AperFunction,Plated,PTH,ComponentDrill
T4C1.300
; #@! TA.AperFunction,Plated,PTH,ComponentDrill
T5C1.600
; #@! TA.AperFunction,Plated,PTH,ComponentDrill
T6C1.700
%
G90
G05
T1
X116.15Y-108.38
X116.15Y-110.38
X116.24Y-62.12
X116.24Y-64.12
X116.24Y-66.12
X116.24Y-86.51
X116.24Y-88.51
X132.43Y-88.89
X132.43Y-90.89
X132.43Y-92.89
X132.43Y-94.89
X165.48Y-94.21
X165.48Y-96.21
X165.48Y-98.21
X165.48Y-100.21
X182.33Y-86.43
X182.33Y-88.43
X182.5Y-108.31
X182.5Y-110.31
X183.23Y-55.82
X183.23Y-57.82
X183.23Y-59.82
T3
X137.0Y-50.7
X137.0Y-76.1
X139.07Y-126.61
X139.54Y-50.7
X139.54Y-76.1
X141.61Y-126.61
X142.08Y-50.7
X142.08Y-76.1
X142.98Y-88.11
X142.98Y-90.65
X142.98Y-93.19
X142.98Y-95.73
X142.98Y-98.27
X142.98Y-100.81
X144.15Y-126.61
X144.62Y-50.7
X144.62Y-76.1
X147.16Y-50.7
X147.16Y-76.1
X149.7Y-50.7
X149.7Y-76.1
X152.24Y-50.7
X152.24Y-76.1
X154.78Y-50.7
X154.78Y-76.1
X155.79Y-88.11
X155.79Y-90.65
X155.79Y-93.19
X155.79Y-95.73
X155.79Y-98.27
X155.79Y-100.81
X157.32Y-50.7
X157.32Y-76.1
X159.85Y-126.61
X159.86Y-50.7
X159.86Y-76.1
X162.39Y-126.61
X162.4Y-50.7
X162.4Y-76.1
X164.93Y-126.61
X164.94Y-50.7
X164.94Y-76.1
X167.47Y-126.61
X167.48Y-50.7
X167.48Y-76.1
X170.02Y-50.7
X170.02Y-76.1
X172.56Y-50.7
X172.56Y-76.1
T4
X137.845Y-134.775
X142.925Y-134.775
X148.005Y-134.775
X154.68Y-134.79
X159.76Y-134.79
X164.84Y-134.79
T5
X173.87Y-85.87
X173.87Y-101.11
T6
X171.74Y-134.6
X175.7Y-134.6
X182.75Y-117.85
X183.25Y-68.837
X183.25Y-72.797
X186.71Y-117.85
X190.67Y-117.85
T2
G00X183.39Y-125.97
M15
G01X185.39Y-125.97
M16
G05
G00X183.39Y-131.97
M15
G01X185.39Y-131.97
M16
G05
G00X189.09Y-129.97
M15
G01X189.09Y-127.97
M16
G05
M30
