%TF.GenerationSoftware,KiCad,Pcbnew,9.0.7*%
%TF.CreationDate,2026-02-02T16:10:31+07:00*%
%TF.ProjectId,controller,636f6e74-726f-46c6-9c65-722e6b696361,rev?*%
%TF.SameCoordinates,Original*%
%TF.FileFunction,Legend,Bot*%
%TF.FilePolarity,Positive*%
%FSLAX46Y46*%
G04 Gerber Fmt 4.6, Leading zero omitted, Abs format (unit mm)*
G04 Created by KiCad (PCBNEW 9.0.7) date 2026-02-02 16:10:31*
%MOMM*%
%LPD*%
G01*
G04 APERTURE LIST*
G04 Aperture macros list*
%AMRoundRect*
0 Rectangle with rounded corners*
0 $1 Rounding radius*
0 $2 $3 $4 $5 $6 $7 $8 $9 X,Y pos of 4 corners*
0 Add a 4 corners polygon primitive as box body*
4,1,4,$2,$3,$4,$5,$6,$7,$8,$9,$2,$3,0*
0 Add four circle primitives for the rounded corners*
1,1,$1+$1,$2,$3*
1,1,$1+$1,$4,$5*
1,1,$1+$1,$6,$7*
1,1,$1+$1,$8,$9*
0 Add four rect primitives between the rounded corners*
20,1,$1+$1,$2,$3,$4,$5,0*
20,1,$1+$1,$4,$5,$6,$7,0*
20,1,$1+$1,$6,$7,$8,$9,0*
20,1,$1+$1,$8,$9,$2,$3,0*%
G04 Aperture macros list end*
%ADD10C,0.300000*%
%ADD11C,0.250000*%
%ADD12RoundRect,0.250000X0.625000X-0.350000X0.625000X0.350000X-0.625000X0.350000X-0.625000X-0.350000X0*%
%ADD13O,1.750000X1.200000*%
%ADD14RoundRect,0.250001X-1.099999X-1.099999X1.099999X-1.099999X1.099999X1.099999X-1.099999X1.099999X0*%
%ADD15C,2.700000*%
%ADD16RoundRect,0.250000X-0.625000X0.350000X-0.625000X-0.350000X0.625000X-0.350000X0.625000X0.350000X0*%
%ADD17R,3.500000X3.500000*%
%ADD18RoundRect,0.750000X1.000000X-0.750000X1.000000X0.750000X-1.000000X0.750000X-1.000000X-0.750000X0*%
%ADD19RoundRect,0.875000X0.875000X-0.875000X0.875000X0.875000X-0.875000X0.875000X-0.875000X-0.875000X0*%
%ADD20R,2.600000X2.600000*%
%ADD21C,2.600000*%
%ADD22C,3.200000*%
%ADD23C,2.000000*%
%ADD24C,2.126000*%
%ADD25C,1.905000*%
%ADD26C,3.000000*%
%ADD27RoundRect,0.102000X1.000000X-1.000000X1.000000X1.000000X-1.000000X1.000000X-1.000000X-1.000000X0*%
%ADD28C,2.204000*%
%ADD29R,3.200000X3.200000*%
%ADD30O,3.200000X3.200000*%
%ADD31RoundRect,0.250001X1.099999X-1.099999X1.099999X1.099999X-1.099999X1.099999X-1.099999X-1.099999X0*%
G04 APERTURE END LIST*
D10*
X153175489Y-94185114D02*
X152961203Y-94256542D01*
X152961203Y-94256542D02*
X152889774Y-94327971D01*
X152889774Y-94327971D02*
X152818346Y-94470828D01*
X152818346Y-94470828D02*
X152818346Y-94685114D01*
X152818346Y-94685114D02*
X152889774Y-94827971D01*
X152889774Y-94827971D02*
X152961203Y-94899400D01*
X152961203Y-94899400D02*
X153104060Y-94970828D01*
X153104060Y-94970828D02*
X153675489Y-94970828D01*
X153675489Y-94970828D02*
X153675489Y-93470828D01*
X153675489Y-93470828D02*
X153175489Y-93470828D01*
X153175489Y-93470828D02*
X153032632Y-93542257D01*
X153032632Y-93542257D02*
X152961203Y-93613685D01*
X152961203Y-93613685D02*
X152889774Y-93756542D01*
X152889774Y-93756542D02*
X152889774Y-93899400D01*
X152889774Y-93899400D02*
X152961203Y-94042257D01*
X152961203Y-94042257D02*
X153032632Y-94113685D01*
X153032632Y-94113685D02*
X153175489Y-94185114D01*
X153175489Y-94185114D02*
X153675489Y-94185114D01*
X151532632Y-93970828D02*
X151532632Y-94970828D01*
X152175489Y-93970828D02*
X152175489Y-94756542D01*
X152175489Y-94756542D02*
X152104060Y-94899400D01*
X152104060Y-94899400D02*
X151961203Y-94970828D01*
X151961203Y-94970828D02*
X151746917Y-94970828D01*
X151746917Y-94970828D02*
X151604060Y-94899400D01*
X151604060Y-94899400D02*
X151532632Y-94827971D01*
X150175489Y-94899400D02*
X150318346Y-94970828D01*
X150318346Y-94970828D02*
X150604060Y-94970828D01*
X150604060Y-94970828D02*
X150746917Y-94899400D01*
X150746917Y-94899400D02*
X150818346Y-94827971D01*
X150818346Y-94827971D02*
X150889774Y-94685114D01*
X150889774Y-94685114D02*
X150889774Y-94256542D01*
X150889774Y-94256542D02*
X150818346Y-94113685D01*
X150818346Y-94113685D02*
X150746917Y-94042257D01*
X150746917Y-94042257D02*
X150604060Y-93970828D01*
X150604060Y-93970828D02*
X150318346Y-93970828D01*
X150318346Y-93970828D02*
X150175489Y-94042257D01*
X149532632Y-94970828D02*
X149532632Y-93470828D01*
X149389775Y-94399400D02*
X148961203Y-94970828D01*
X148961203Y-93970828D02*
X149532632Y-94542257D01*
X146461203Y-93470828D02*
X147175489Y-93470828D01*
X147175489Y-93470828D02*
X147246917Y-94185114D01*
X147246917Y-94185114D02*
X147175489Y-94113685D01*
X147175489Y-94113685D02*
X147032632Y-94042257D01*
X147032632Y-94042257D02*
X146675489Y-94042257D01*
X146675489Y-94042257D02*
X146532632Y-94113685D01*
X146532632Y-94113685D02*
X146461203Y-94185114D01*
X146461203Y-94185114D02*
X146389774Y-94327971D01*
X146389774Y-94327971D02*
X146389774Y-94685114D01*
X146389774Y-94685114D02*
X146461203Y-94827971D01*
X146461203Y-94827971D02*
X146532632Y-94899400D01*
X146532632Y-94899400D02*
X146675489Y-94970828D01*
X146675489Y-94970828D02*
X147032632Y-94970828D01*
X147032632Y-94970828D02*
X147175489Y-94899400D01*
X147175489Y-94899400D02*
X147246917Y-94827971D01*
X145961203Y-93470828D02*
X145461203Y-94970828D01*
X145461203Y-94970828D02*
X144961203Y-93470828D01*
X130599774Y-93520828D02*
X130314060Y-93520828D01*
X130314060Y-93520828D02*
X130171203Y-93592257D01*
X130171203Y-93592257D02*
X130028346Y-93735114D01*
X130028346Y-93735114D02*
X129956917Y-94020828D01*
X129956917Y-94020828D02*
X129956917Y-94520828D01*
X129956917Y-94520828D02*
X130028346Y-94806542D01*
X130028346Y-94806542D02*
X130171203Y-94949400D01*
X130171203Y-94949400D02*
X130314060Y-95020828D01*
X130314060Y-95020828D02*
X130599774Y-95020828D01*
X130599774Y-95020828D02*
X130742632Y-94949400D01*
X130742632Y-94949400D02*
X130885489Y-94806542D01*
X130885489Y-94806542D02*
X130956917Y-94520828D01*
X130956917Y-94520828D02*
X130956917Y-94020828D01*
X130956917Y-94020828D02*
X130885489Y-93735114D01*
X130885489Y-93735114D02*
X130742632Y-93592257D01*
X130742632Y-93592257D02*
X130599774Y-93520828D01*
X129314060Y-93520828D02*
X129314060Y-94735114D01*
X129314060Y-94735114D02*
X129242631Y-94877971D01*
X129242631Y-94877971D02*
X129171203Y-94949400D01*
X129171203Y-94949400D02*
X129028345Y-95020828D01*
X129028345Y-95020828D02*
X128742631Y-95020828D01*
X128742631Y-95020828D02*
X128599774Y-94949400D01*
X128599774Y-94949400D02*
X128528345Y-94877971D01*
X128528345Y-94877971D02*
X128456917Y-94735114D01*
X128456917Y-94735114D02*
X128456917Y-93520828D01*
X127956916Y-93520828D02*
X127099774Y-93520828D01*
X127528345Y-95020828D02*
X127528345Y-93520828D01*
X158148346Y-63470828D02*
X158648346Y-62756542D01*
X159005489Y-63470828D02*
X159005489Y-61970828D01*
X159005489Y-61970828D02*
X158434060Y-61970828D01*
X158434060Y-61970828D02*
X158291203Y-62042257D01*
X158291203Y-62042257D02*
X158219774Y-62113685D01*
X158219774Y-62113685D02*
X158148346Y-62256542D01*
X158148346Y-62256542D02*
X158148346Y-62470828D01*
X158148346Y-62470828D02*
X158219774Y-62613685D01*
X158219774Y-62613685D02*
X158291203Y-62685114D01*
X158291203Y-62685114D02*
X158434060Y-62756542D01*
X158434060Y-62756542D02*
X159005489Y-62756542D01*
X157505489Y-62685114D02*
X157005489Y-62685114D01*
X156791203Y-63470828D02*
X157505489Y-63470828D01*
X157505489Y-63470828D02*
X157505489Y-61970828D01*
X157505489Y-61970828D02*
X156791203Y-61970828D01*
X155434060Y-63470828D02*
X156148346Y-63470828D01*
X156148346Y-63470828D02*
X156148346Y-61970828D01*
X155005488Y-63042257D02*
X154291203Y-63042257D01*
X155148345Y-63470828D02*
X154648345Y-61970828D01*
X154648345Y-61970828D02*
X154148345Y-63470828D01*
X153362631Y-62756542D02*
X153362631Y-63470828D01*
X153862631Y-61970828D02*
X153362631Y-62756542D01*
X153362631Y-62756542D02*
X152862631Y-61970828D01*
X150434060Y-63470828D02*
X151291203Y-63470828D01*
X150862632Y-63470828D02*
X150862632Y-61970828D01*
X150862632Y-61970828D02*
X151005489Y-62185114D01*
X151005489Y-62185114D02*
X151148346Y-62327971D01*
X151148346Y-62327971D02*
X151291203Y-62399400D01*
X149862632Y-62113685D02*
X149791204Y-62042257D01*
X149791204Y-62042257D02*
X149648347Y-61970828D01*
X149648347Y-61970828D02*
X149291204Y-61970828D01*
X149291204Y-61970828D02*
X149148347Y-62042257D01*
X149148347Y-62042257D02*
X149076918Y-62113685D01*
X149076918Y-62113685D02*
X149005489Y-62256542D01*
X149005489Y-62256542D02*
X149005489Y-62399400D01*
X149005489Y-62399400D02*
X149076918Y-62613685D01*
X149076918Y-62613685D02*
X149934061Y-63470828D01*
X149934061Y-63470828D02*
X149005489Y-63470828D01*
X148576918Y-61970828D02*
X148076918Y-63470828D01*
X148076918Y-63470828D02*
X147576918Y-61970828D01*
X168945489Y-117050828D02*
X168945489Y-115550828D01*
X168231203Y-117050828D02*
X168231203Y-115550828D01*
X168231203Y-115550828D02*
X167374060Y-117050828D01*
X167374060Y-117050828D02*
X167374060Y-115550828D01*
X168985489Y-95020828D02*
X168985489Y-93520828D01*
X168271203Y-95020828D02*
X168271203Y-93520828D01*
X168271203Y-93520828D02*
X167414060Y-95020828D01*
X167414060Y-95020828D02*
X167414060Y-93520828D01*
X130859774Y-115470828D02*
X130574060Y-115470828D01*
X130574060Y-115470828D02*
X130431203Y-115542257D01*
X130431203Y-115542257D02*
X130288346Y-115685114D01*
X130288346Y-115685114D02*
X130216917Y-115970828D01*
X130216917Y-115970828D02*
X130216917Y-116470828D01*
X130216917Y-116470828D02*
X130288346Y-116756542D01*
X130288346Y-116756542D02*
X130431203Y-116899400D01*
X130431203Y-116899400D02*
X130574060Y-116970828D01*
X130574060Y-116970828D02*
X130859774Y-116970828D01*
X130859774Y-116970828D02*
X131002632Y-116899400D01*
X131002632Y-116899400D02*
X131145489Y-116756542D01*
X131145489Y-116756542D02*
X131216917Y-116470828D01*
X131216917Y-116470828D02*
X131216917Y-115970828D01*
X131216917Y-115970828D02*
X131145489Y-115685114D01*
X131145489Y-115685114D02*
X131002632Y-115542257D01*
X131002632Y-115542257D02*
X130859774Y-115470828D01*
X129574060Y-115470828D02*
X129574060Y-116685114D01*
X129574060Y-116685114D02*
X129502631Y-116827971D01*
X129502631Y-116827971D02*
X129431203Y-116899400D01*
X129431203Y-116899400D02*
X129288345Y-116970828D01*
X129288345Y-116970828D02*
X129002631Y-116970828D01*
X129002631Y-116970828D02*
X128859774Y-116899400D01*
X128859774Y-116899400D02*
X128788345Y-116827971D01*
X128788345Y-116827971D02*
X128716917Y-116685114D01*
X128716917Y-116685114D02*
X128716917Y-115470828D01*
X128216916Y-115470828D02*
X127359774Y-115470828D01*
X127788345Y-116970828D02*
X127788345Y-115470828D01*
X152945489Y-116135114D02*
X152731203Y-116206542D01*
X152731203Y-116206542D02*
X152659774Y-116277971D01*
X152659774Y-116277971D02*
X152588346Y-116420828D01*
X152588346Y-116420828D02*
X152588346Y-116635114D01*
X152588346Y-116635114D02*
X152659774Y-116777971D01*
X152659774Y-116777971D02*
X152731203Y-116849400D01*
X152731203Y-116849400D02*
X152874060Y-116920828D01*
X152874060Y-116920828D02*
X153445489Y-116920828D01*
X153445489Y-116920828D02*
X153445489Y-115420828D01*
X153445489Y-115420828D02*
X152945489Y-115420828D01*
X152945489Y-115420828D02*
X152802632Y-115492257D01*
X152802632Y-115492257D02*
X152731203Y-115563685D01*
X152731203Y-115563685D02*
X152659774Y-115706542D01*
X152659774Y-115706542D02*
X152659774Y-115849400D01*
X152659774Y-115849400D02*
X152731203Y-115992257D01*
X152731203Y-115992257D02*
X152802632Y-116063685D01*
X152802632Y-116063685D02*
X152945489Y-116135114D01*
X152945489Y-116135114D02*
X153445489Y-116135114D01*
X151302632Y-115920828D02*
X151302632Y-116920828D01*
X151945489Y-115920828D02*
X151945489Y-116706542D01*
X151945489Y-116706542D02*
X151874060Y-116849400D01*
X151874060Y-116849400D02*
X151731203Y-116920828D01*
X151731203Y-116920828D02*
X151516917Y-116920828D01*
X151516917Y-116920828D02*
X151374060Y-116849400D01*
X151374060Y-116849400D02*
X151302632Y-116777971D01*
X149945489Y-116849400D02*
X150088346Y-116920828D01*
X150088346Y-116920828D02*
X150374060Y-116920828D01*
X150374060Y-116920828D02*
X150516917Y-116849400D01*
X150516917Y-116849400D02*
X150588346Y-116777971D01*
X150588346Y-116777971D02*
X150659774Y-116635114D01*
X150659774Y-116635114D02*
X150659774Y-116206542D01*
X150659774Y-116206542D02*
X150588346Y-116063685D01*
X150588346Y-116063685D02*
X150516917Y-115992257D01*
X150516917Y-115992257D02*
X150374060Y-115920828D01*
X150374060Y-115920828D02*
X150088346Y-115920828D01*
X150088346Y-115920828D02*
X149945489Y-115992257D01*
X149302632Y-116920828D02*
X149302632Y-115420828D01*
X149159775Y-116349400D02*
X148731203Y-116920828D01*
X148731203Y-115920828D02*
X149302632Y-116492257D01*
X147088346Y-115420828D02*
X146159774Y-115420828D01*
X146159774Y-115420828D02*
X146659774Y-115992257D01*
X146659774Y-115992257D02*
X146445489Y-115992257D01*
X146445489Y-115992257D02*
X146302632Y-116063685D01*
X146302632Y-116063685D02*
X146231203Y-116135114D01*
X146231203Y-116135114D02*
X146159774Y-116277971D01*
X146159774Y-116277971D02*
X146159774Y-116635114D01*
X146159774Y-116635114D02*
X146231203Y-116777971D01*
X146231203Y-116777971D02*
X146302632Y-116849400D01*
X146302632Y-116849400D02*
X146445489Y-116920828D01*
X146445489Y-116920828D02*
X146874060Y-116920828D01*
X146874060Y-116920828D02*
X147016917Y-116849400D01*
X147016917Y-116849400D02*
X147088346Y-116777971D01*
X145731203Y-115420828D02*
X145231203Y-116920828D01*
X145231203Y-116920828D02*
X144731203Y-115420828D01*
X144374061Y-115420828D02*
X143445489Y-115420828D01*
X143445489Y-115420828D02*
X143945489Y-115992257D01*
X143945489Y-115992257D02*
X143731204Y-115992257D01*
X143731204Y-115992257D02*
X143588347Y-116063685D01*
X143588347Y-116063685D02*
X143516918Y-116135114D01*
X143516918Y-116135114D02*
X143445489Y-116277971D01*
X143445489Y-116277971D02*
X143445489Y-116635114D01*
X143445489Y-116635114D02*
X143516918Y-116777971D01*
X143516918Y-116777971D02*
X143588347Y-116849400D01*
X143588347Y-116849400D02*
X143731204Y-116920828D01*
X143731204Y-116920828D02*
X144159775Y-116920828D01*
X144159775Y-116920828D02*
X144302632Y-116849400D01*
X144302632Y-116849400D02*
X144374061Y-116777971D01*
%TO.C,U1*%
D11*
X169900000Y-106050000D02*
X126720000Y-106050000D01*
X126720000Y-127132000D01*
X169900000Y-127132000D01*
X169900000Y-106050000D01*
%TO.C,U5*%
X169900000Y-84118000D02*
X126720000Y-84118000D01*
X126720000Y-105200000D01*
X169900000Y-105200000D01*
X169900000Y-84118000D01*
%TO.C,U6*%
X176700000Y-42300000D02*
X126700000Y-42300000D01*
X126700000Y-83300000D01*
X176700000Y-83300000D01*
X176700000Y-42300000D01*
%TD*%
%LPC*%
D12*
%TO.C,J14*%
X116240000Y-66120000D03*
D13*
X116240000Y-64120000D03*
X116240000Y-62120000D03*
%TD*%
D14*
%TO.C,J13*%
X182750000Y-117850000D03*
D15*
X186710000Y-117850000D03*
X190670000Y-117850000D03*
%TD*%
D13*
%TO.C,J7*%
X116240000Y-86510000D03*
D12*
X116240000Y-88510000D03*
%TD*%
D13*
%TO.C,J4*%
X182500000Y-108310000D03*
D12*
X182500000Y-110310000D03*
%TD*%
D16*
%TO.C,J9*%
X165480000Y-94210000D03*
D13*
X165480000Y-96210000D03*
X165480000Y-98210000D03*
X165480000Y-100210000D03*
%TD*%
D12*
%TO.C,J6*%
X182330000Y-88430000D03*
D13*
X182330000Y-86430000D03*
%TD*%
D17*
%TO.C,J1*%
X184390000Y-125970000D03*
D18*
X184390000Y-131970000D03*
D19*
X189090000Y-128970000D03*
%TD*%
D20*
%TO.C,J11*%
X154680000Y-134790000D03*
D21*
X159760000Y-134790000D03*
X164840000Y-134790000D03*
%TD*%
D22*
%TO.C,REF\u002A\u002A*%
X196100000Y-136100000D03*
%TD*%
D23*
%TO.C,U3*%
X155790000Y-100810000D03*
X155790000Y-98270000D03*
X155790000Y-95730000D03*
X155790000Y-93190000D03*
X155790000Y-90650000D03*
X155790000Y-88110000D03*
X142980000Y-100810000D03*
X142980000Y-98270000D03*
X142980000Y-95730000D03*
X142980000Y-93190000D03*
X142980000Y-90650000D03*
X142980000Y-88110000D03*
%TD*%
D24*
%TO.C,U2*%
X175942000Y-126602000D03*
X175942000Y-107998000D03*
X128658000Y-126602000D03*
X128658000Y-107998000D03*
D25*
X167470000Y-126610000D03*
X164930000Y-126610000D03*
X162390000Y-126610000D03*
X159850000Y-126610000D03*
X144150000Y-126610000D03*
X141610000Y-126610000D03*
X139070000Y-126610000D03*
%TD*%
D12*
%TO.C,J5*%
X116150000Y-110380000D03*
D13*
X116150000Y-108380000D03*
%TD*%
D20*
%TO.C,J12*%
X137845000Y-134775000D03*
D21*
X142925000Y-134775000D03*
X148005000Y-134775000D03*
%TD*%
D12*
%TO.C,J2*%
X183230000Y-59820000D03*
D13*
X183230000Y-57820000D03*
X183230000Y-55820000D03*
%TD*%
D22*
%TO.C,REF\u002A\u002A*%
X196100000Y-45900000D03*
%TD*%
D14*
%TO.C,J8*%
X171740000Y-134600000D03*
D15*
X175700000Y-134600000D03*
%TD*%
D22*
%TO.C,REF\u002A\u002A*%
X105900000Y-45900000D03*
%TD*%
D26*
%TO.C,U4*%
X129040000Y-75680000D03*
X175990000Y-75680000D03*
X129040000Y-51170000D03*
X175990000Y-51170000D03*
D27*
X137000000Y-76100000D03*
D28*
X139540000Y-76100000D03*
X142080000Y-76100000D03*
X144620000Y-76100000D03*
X147160000Y-76100000D03*
X149700000Y-76100000D03*
X152240000Y-76100000D03*
X154780000Y-76100000D03*
X157320000Y-76100000D03*
X159860000Y-76100000D03*
X162400000Y-76100000D03*
X164940000Y-76100000D03*
X167480000Y-76100000D03*
X170020000Y-76100000D03*
X172560000Y-76100000D03*
X172560000Y-50700000D03*
X170020000Y-50700000D03*
X167480000Y-50700000D03*
X164940000Y-50700000D03*
X162400000Y-50700000D03*
X159860000Y-50700000D03*
X157320000Y-50700000D03*
X154780000Y-50700000D03*
X152240000Y-50700000D03*
X149700000Y-50700000D03*
X147160000Y-50700000D03*
X144620000Y-50700000D03*
X142080000Y-50700000D03*
X139540000Y-50700000D03*
X137000000Y-50700000D03*
%TD*%
D22*
%TO.C,REF\u002A\u002A*%
X105900000Y-136100000D03*
%TD*%
D16*
%TO.C,J10*%
X132430000Y-88890000D03*
D13*
X132430000Y-90890000D03*
X132430000Y-92890000D03*
X132430000Y-94890000D03*
%TD*%
D29*
%TO.C,D1*%
X173870000Y-101110000D03*
D30*
X173870000Y-85870000D03*
%TD*%
D31*
%TO.C,J3*%
X183250000Y-72797500D03*
D15*
X183250000Y-68837500D03*
%TD*%
D22*
%TO.C,U1*%
X163300000Y-108650000D03*
X133320000Y-124532000D03*
%TD*%
%TO.C,U5*%
X163300000Y-86718000D03*
X133320000Y-102600000D03*
%TD*%
%TO.C,U6*%
X174100000Y-80700000D03*
X174100000Y-44900000D03*
X129300000Y-80700000D03*
X129300000Y-44900000D03*
%TD*%
%LPD*%
M02*
