M48
; DRILL file {KiCad 9.0.7} date 2026-01-30T16:17:46+0700
; FORMAT={-:-/ absolute / metric / decimal}
; #@! TF.CreationDate,2026-01-30T16:17:46+07:00
; #@! TF.GenerationSoftware,Kicad,Pcbnew,9.0.7
; #@! TF.FileFunction,Plated,1,2,PTH
FMAT,2
METRIC
; #@! TA.AperFunction,Plated,PTH,ComponentDrill
T1C0.750
; #@! TA.AperFunction,Plated,PTH,ComponentDrill
T2C1.020
; #@! TA.AperFunction,Plated,PTH,ComponentDrill
T3C1.300
; #@! TA.AperFunction,Plated,PTH,ComponentDrill
T4C1.600
; #@! TA.AperFunction,Plated,PTH,ComponentDrill
T5C1.700
%
G90
G05
T1
X119.17Y-62.27
X119.17Y-64.27
X132.43Y-88.89
X132.43Y-90.89
X132.43Y-92.89
X132.43Y-94.89
X165.48Y-94.21
X165.48Y-96.21
X165.48Y-98.21
X165.48Y-100.21
T2
X137.0Y-50.7
X137.0Y-76.1
X139.07Y-126.61
X139.54Y-50.7
X139.54Y-76.1
X141.61Y-126.61
X142.08Y-50.7
X142.08Y-76.1
X142.98Y-88.11
X142.98Y-90.65
X142.98Y-93.19
X142.98Y-95.73
X142.98Y-98.27
X142.98Y-100.81
X144.15Y-126.61
X144.62Y-50.7
X144.62Y-76.1
X147.16Y-50.7
X147.16Y-76.1
X149.7Y-50.7
X149.7Y-76.1
X152.24Y-50.7
X152.24Y-76.1
X154.78Y-50.7
X154.78Y-76.1
X155.79Y-88.11
X155.79Y-90.65
X155.79Y-93.19
X155.79Y-95.73
X155.79Y-98.27
X155.79Y-100.81
X157.32Y-50.7
X157.32Y-76.1
X159.85Y-126.61
X159.86Y-50.7
X159.86Y-76.1
X162.39Y-126.61
X162.4Y-50.7
X162.4Y-76.1
X164.93Y-126.61
X164.94Y-50.7
X164.94Y-76.1
X167.47Y-126.61
X167.48Y-50.7
X167.48Y-76.1
X170.02Y-50.7
X170.02Y-76.1
X172.56Y-50.7
X172.56Y-76.1
T3
X137.845Y-134.775
X142.925Y-134.775
X148.005Y-134.775
X154.68Y-134.79
X159.76Y-134.79
X164.84Y-134.79
T4
X174.99Y-87.24
X174.99Y-102.48
T5
X116.18Y-114.777
X116.18Y-118.737
X116.26Y-92.5
X116.26Y-96.46
X173.25Y-133.43
X177.21Y-133.43
X183.71Y-133.43
X186.28Y-114.367
X186.28Y-118.328
X186.29Y-81.157
X186.29Y-85.117
X186.31Y-92.487
X186.31Y-96.447
X186.32Y-52.14
X186.32Y-56.1
X186.32Y-60.06
X186.34Y-69.078
X186.34Y-73.037
X187.67Y-133.43
M30
