%TF.GenerationSoftware,KiCad,Pcbnew,9.0.7*%
%TF.CreationDate,2026-02-02T16:10:31+07:00*%
%TF.ProjectId,controller,636f6e74-726f-46c6-9c65-722e6b696361,rev?*%
%TF.SameCoordinates,Original*%
%TF.FileFunction,Soldermask,Top*%
%TF.FilePolarity,Negative*%
%FSLAX46Y46*%
G04 Gerber Fmt 4.6, Leading zero omitted, Abs format (unit mm)*
G04 Created by KiCad (PCBNEW 9.0.7) date 2026-02-02 16:10:31*
%MOMM*%
%LPD*%
G01*
G04 APERTURE LIST*
G04 Aperture macros list*
%AMRoundRect*
0 Rectangle with rounded corners*
0 $1 Rounding radius*
0 $2 $3 $4 $5 $6 $7 $8 $9 X,Y pos of 4 corners*
0 Add a 4 corners polygon primitive as box body*
4,1,4,$2,$3,$4,$5,$6,$7,$8,$9,$2,$3,0*
0 Add four circle primitives for the rounded corners*
1,1,$1+$1,$2,$3*
1,1,$1+$1,$4,$5*
1,1,$1+$1,$6,$7*
1,1,$1+$1,$8,$9*
0 Add four rect primitives between the rounded corners*
20,1,$1+$1,$2,$3,$4,$5,0*
20,1,$1+$1,$4,$5,$6,$7,0*
20,1,$1+$1,$6,$7,$8,$9,0*
20,1,$1+$1,$8,$9,$2,$3,0*%
G04 Aperture macros list end*
%ADD10RoundRect,0.250000X0.625000X-0.350000X0.625000X0.350000X-0.625000X0.350000X-0.625000X-0.350000X0*%
%ADD11O,1.750000X1.200000*%
%ADD12RoundRect,0.250001X-1.099999X-1.099999X1.099999X-1.099999X1.099999X1.099999X-1.099999X1.099999X0*%
%ADD13C,2.700000*%
%ADD14RoundRect,0.250000X-0.625000X0.350000X-0.625000X-0.350000X0.625000X-0.350000X0.625000X0.350000X0*%
%ADD15R,3.500000X3.500000*%
%ADD16RoundRect,0.750000X1.000000X-0.750000X1.000000X0.750000X-1.000000X0.750000X-1.000000X-0.750000X0*%
%ADD17RoundRect,0.875000X0.875000X-0.875000X0.875000X0.875000X-0.875000X0.875000X-0.875000X-0.875000X0*%
%ADD18R,2.600000X2.600000*%
%ADD19C,2.600000*%
%ADD20C,3.200000*%
%ADD21C,2.000000*%
%ADD22C,2.126000*%
%ADD23C,1.905000*%
%ADD24C,3.000000*%
%ADD25RoundRect,0.102000X1.000000X-1.000000X1.000000X1.000000X-1.000000X1.000000X-1.000000X-1.000000X0*%
%ADD26C,2.204000*%
%ADD27R,3.200000X3.200000*%
%ADD28O,3.200000X3.200000*%
%ADD29RoundRect,0.250001X1.099999X-1.099999X1.099999X1.099999X-1.099999X1.099999X-1.099999X-1.099999X0*%
G04 APERTURE END LIST*
D10*
%TO.C,J14*%
X116240000Y-66120000D03*
D11*
X116240000Y-64120000D03*
X116240000Y-62120000D03*
%TD*%
D12*
%TO.C,J13*%
X182750000Y-117850000D03*
D13*
X186710000Y-117850000D03*
X190670000Y-117850000D03*
%TD*%
D11*
%TO.C,J7*%
X116240000Y-86510000D03*
D10*
X116240000Y-88510000D03*
%TD*%
D11*
%TO.C,J4*%
X182500000Y-108310000D03*
D10*
X182500000Y-110310000D03*
%TD*%
D14*
%TO.C,J9*%
X165480000Y-94210000D03*
D11*
X165480000Y-96210000D03*
X165480000Y-98210000D03*
X165480000Y-100210000D03*
%TD*%
D10*
%TO.C,J6*%
X182330000Y-88430000D03*
D11*
X182330000Y-86430000D03*
%TD*%
D15*
%TO.C,J1*%
X184390000Y-125970000D03*
D16*
X184390000Y-131970000D03*
D17*
X189090000Y-128970000D03*
%TD*%
D18*
%TO.C,J11*%
X154680000Y-134790000D03*
D19*
X159760000Y-134790000D03*
X164840000Y-134790000D03*
%TD*%
D20*
%TO.C,REF\u002A\u002A*%
X196100000Y-136100000D03*
%TD*%
D21*
%TO.C,U3*%
X155790000Y-100810000D03*
X155790000Y-98270000D03*
X155790000Y-95730000D03*
X155790000Y-93190000D03*
X155790000Y-90650000D03*
X155790000Y-88110000D03*
X142980000Y-100810000D03*
X142980000Y-98270000D03*
X142980000Y-95730000D03*
X142980000Y-93190000D03*
X142980000Y-90650000D03*
X142980000Y-88110000D03*
%TD*%
D22*
%TO.C,U2*%
X175942000Y-126602000D03*
X175942000Y-107998000D03*
X128658000Y-126602000D03*
X128658000Y-107998000D03*
D23*
X167470000Y-126610000D03*
X164930000Y-126610000D03*
X162390000Y-126610000D03*
X159850000Y-126610000D03*
X144150000Y-126610000D03*
X141610000Y-126610000D03*
X139070000Y-126610000D03*
%TD*%
D10*
%TO.C,J5*%
X116150000Y-110380000D03*
D11*
X116150000Y-108380000D03*
%TD*%
D18*
%TO.C,J12*%
X137845000Y-134775000D03*
D19*
X142925000Y-134775000D03*
X148005000Y-134775000D03*
%TD*%
D10*
%TO.C,J2*%
X183230000Y-59820000D03*
D11*
X183230000Y-57820000D03*
X183230000Y-55820000D03*
%TD*%
D20*
%TO.C,REF\u002A\u002A*%
X196100000Y-45900000D03*
%TD*%
D12*
%TO.C,J8*%
X171740000Y-134600000D03*
D13*
X175700000Y-134600000D03*
%TD*%
D20*
%TO.C,REF\u002A\u002A*%
X105900000Y-45900000D03*
%TD*%
D24*
%TO.C,U4*%
X129040000Y-75680000D03*
X175990000Y-75680000D03*
X129040000Y-51170000D03*
X175990000Y-51170000D03*
D25*
X137000000Y-76100000D03*
D26*
X139540000Y-76100000D03*
X142080000Y-76100000D03*
X144620000Y-76100000D03*
X147160000Y-76100000D03*
X149700000Y-76100000D03*
X152240000Y-76100000D03*
X154780000Y-76100000D03*
X157320000Y-76100000D03*
X159860000Y-76100000D03*
X162400000Y-76100000D03*
X164940000Y-76100000D03*
X167480000Y-76100000D03*
X170020000Y-76100000D03*
X172560000Y-76100000D03*
X172560000Y-50700000D03*
X170020000Y-50700000D03*
X167480000Y-50700000D03*
X164940000Y-50700000D03*
X162400000Y-50700000D03*
X159860000Y-50700000D03*
X157320000Y-50700000D03*
X154780000Y-50700000D03*
X152240000Y-50700000D03*
X149700000Y-50700000D03*
X147160000Y-50700000D03*
X144620000Y-50700000D03*
X142080000Y-50700000D03*
X139540000Y-50700000D03*
X137000000Y-50700000D03*
%TD*%
D20*
%TO.C,REF\u002A\u002A*%
X105900000Y-136100000D03*
%TD*%
D14*
%TO.C,J10*%
X132430000Y-88890000D03*
D11*
X132430000Y-90890000D03*
X132430000Y-92890000D03*
X132430000Y-94890000D03*
%TD*%
D27*
%TO.C,D1*%
X173870000Y-101110000D03*
D28*
X173870000Y-85870000D03*
%TD*%
D29*
%TO.C,J3*%
X183250000Y-72797500D03*
D13*
X183250000Y-68837500D03*
%TD*%
D20*
%TO.C,U1*%
X163300000Y-108650000D03*
X133320000Y-124532000D03*
%TD*%
%TO.C,U5*%
X163300000Y-86718000D03*
X133320000Y-102600000D03*
%TD*%
%TO.C,U6*%
X174100000Y-80700000D03*
X174100000Y-44900000D03*
X129300000Y-80700000D03*
X129300000Y-44900000D03*
%TD*%
M02*
